HIERARCHY
ROOT Hips
{
	OFFSET 0.000000 0.000000 0.000000
	CHANNELS 6 Xposition Yposition Zposition Zrotation Yrotation Xrotation
	JOINT LHipJoint
	{
		OFFSET 0.000000 0.000000 0.000000
		CHANNELS 3 Zrotation Yrotation Xrotation
		JOINT LeftUpLeg
		{
			OFFSET 1.363060 -1.794630 0.839290
			CHANNELS 3 Zrotation Yrotation Xrotation
			JOINT LeftLeg
			{
				OFFSET 2.448110 -6.726130 0.000000
				CHANNELS 3 Zrotation Yrotation Xrotation
				JOINT LeftFoot
				{
					OFFSET 2.562200 -7.039590 0.000000
					CHANNELS 3 Zrotation Yrotation Xrotation
					JOINT LeftToeBase
					{
						OFFSET 0.157640 -0.433110 2.322550
						CHANNELS 3 Zrotation Yrotation Xrotation
						End Site
						{
							OFFSET 0.000000 0.000000 0.000000
						}
					}
				}
			}
		}
	}
	JOINT RHipJoint
	{
		OFFSET 0.000000 0.000000 0.000000
		CHANNELS 3 Zrotation Yrotation Xrotation
		JOINT RightUpLeg
		{
			OFFSET -1.305520 -1.794630 0.839290
			CHANNELS 3 Zrotation Yrotation Xrotation
			JOINT RightLeg
			{
				OFFSET -2.542530 -6.985550 0.000000
				CHANNELS 3 Zrotation Yrotation Xrotation
				JOINT RightFoot
				{
					OFFSET -2.568260 -7.056230 0.000000
					CHANNELS 3 Zrotation Yrotation Xrotation
					JOINT RightToeBase
					{
						OFFSET -0.164730 -0.452590 2.363150
						CHANNELS 3 Zrotation Yrotation Xrotation
						End Site
						{
							OFFSET 0.000000 0.000000 0.000000
						}
					}
				}
			}
		}
	}
	JOINT LowerBack
	{
		OFFSET 0.000000 0.000000 0.000000
		CHANNELS 3 Zrotation Yrotation Xrotation
		JOINT Spine
		{
			OFFSET 0.028270 2.035590 -0.193380
			CHANNELS 3 Zrotation Yrotation Xrotation
			JOINT Spine1
			{
				OFFSET 0.056720 2.048850 -0.042750
				CHANNELS 3 Zrotation Yrotation Xrotation
				JOINT Neck
				{
					OFFSET 0.000000 0.000000 0.000000
					CHANNELS 3 Zrotation Yrotation Xrotation
					JOINT Neck1
					{
						OFFSET -0.054170 1.746240 0.172020
						CHANNELS 3 Zrotation Yrotation Xrotation
						JOINT Head
						{
							OFFSET 0.104070 1.761360 -0.123970
							CHANNELS 3 Zrotation Yrotation Xrotation
							End Site
							{
								OFFSET 0.000000 0.000000 0.000000
							}
						}
					}
				}
				JOINT LeftShoulder
				{
					OFFSET 0.000000 0.000000 0.000000
					CHANNELS 3 Zrotation Yrotation Xrotation
					JOINT LeftArm
					{
						OFFSET 3.362410 1.200890 -0.311210
						CHANNELS 3 Zrotation Yrotation Xrotation
						JOINT LeftForeArm
						{
							OFFSET 4.983000 -0.000000 -0.000000
							CHANNELS 3 Zrotation Yrotation Xrotation
							JOINT LeftHand
							{
								OFFSET 3.483560 -0.000000 -0.000000
								CHANNELS 3 Zrotation Yrotation Xrotation
								JOINT LeftFingerBase
								{
									OFFSET 0.000000 0.000000 0.000000
									CHANNELS 3 Zrotation Yrotation Xrotation
									JOINT LeftHandIndex1
									{
										OFFSET 0.715260 -0.000000 -0.000000
										CHANNELS 3 Zrotation Yrotation Xrotation
										End Site
										{
											OFFSET 0.000000 0.000000 0.000000
										}
									}
								}
								JOINT LThumb
								{
									OFFSET 0.000000 0.000000 0.000000
									CHANNELS 3 Zrotation Yrotation Xrotation
									End Site
									{
										OFFSET 0.000000 0.000000 0.000000
									}
								}
							}
						}
					}
				}
				JOINT RightShoulder
				{
					OFFSET 0.000000 0.000000 0.000000
					CHANNELS 3 Zrotation Yrotation Xrotation
					JOINT RightArm
					{
						OFFSET -3.136600 1.374050 -0.404650
						CHANNELS 3 Zrotation Yrotation Xrotation
						JOINT RightForeArm
						{
							OFFSET -5.241900 -0.000000 -0.000000
							CHANNELS 3 Zrotation Yrotation Xrotation
							JOINT RightHand
							{
								OFFSET -3.444170 -0.000000 -0.000000
								CHANNELS 3 Zrotation Yrotation Xrotation
								JOINT RightFingerBase
								{
									OFFSET 0.000000 0.000000 0.000000
									CHANNELS 3 Zrotation Yrotation Xrotation
									JOINT RightHandIndex1
									{
										OFFSET -0.622530 -0.000000 -0.000000
										CHANNELS 3 Zrotation Yrotation Xrotation
										End Site
										{
											OFFSET 0.000000 0.000000 0.000000
										}
									}
								}
								JOINT RThumb
								{
									OFFSET 0.000000 0.000000 0.000000
									CHANNELS 3 Zrotation Yrotation Xrotation
									End Site
									{
										OFFSET 0.000000 0.000000 0.000000
									}
								}
							}
						}
					}
				}
			}
		}
	}
}
MOTION
Frames: 6
Frame Time: 0.008333
0.005197 -0.000447 0.092493 -0.063302 -0.053723 0.126728 -0.076627 -0.025075 -0.029756 0.155843 -0.034719 0.046894 -0.391300 -0.401393 -1.536752 -0.129101 0.522538 0.357406 -0.004485 0.343803 0.944784 0.025696 -0.000997 0.027431 -0.038755 -0.036412 0.242397 0.026404 0.050699 -0.127327 -0.091863 0.281205 -0.043618 -0.023212 -0.325581 0.897464 0.108857 0.007105 -0.082155 0.001934 0.013626 0.014836 -0.050317 0.009463 0.062106 -0.088508 -0.000847 -0.124957 0.044721 0.029368 -0.040818 0.028482 0.010933 0.011774 -0.005107 0.005195 -0.003674 -0.116724 0.002379 -0.245887 -0.073336 0.101681 0.032801 -0.002155 -0.026738 0.453468 0.100326 1.536526 0.808990 0.000000 0.000000 0.000000 -0.235593 1.735216 -0.052703 -0.004177 0.013030 0.008132 -0.102641 0.312524 0.274399 -0.125707 0.163107 -0.056326 0.001445 0.002447 -0.095866 -0.151220 0.036605 -0.068009 -0.000000 0.000000 0.000000 -0.096379 0.056459 -0.074121
-0.659194 -0.082465 -1.167214 0.126596 0.101275 -0.155662 -0.104698 -0.181586 -0.113977 0.351963 0.158584 1.484210 -0.695709 0.064613 -0.944937 0.765090 0.854431 1.772197 0.164549 0.447048 4.095037 0.353316 0.245031 0.070691 -0.588297 -0.985038 -0.815265 -0.035350 0.187710 -0.891900 -0.169244 -2.959805 -5.274120 0.005768 -1.068703 0.776140 0.122412 -0.429432 -0.779479 0.004135 -0.249672 0.226839 -0.092696 -0.208446 0.301464 -0.467980 -0.416254 -0.318686 0.478984 -0.397166 -0.189157 0.104317 -0.116358 0.045141 -0.308727 -0.434815 -0.043282 -0.824788 -0.287138 -2.785739 -1.261207 -0.272656 -0.076361 -0.045222 -0.136264 -1.000461 -0.780786 2.902193 1.003930 -0.152097 0.000000 0.000000 1.247806 2.420700 0.637063 -0.109986 0.560481 -0.066135 -0.006168 0.503575 1.340594 -0.329944 0.221769 -1.496484 -0.250614 0.089272 -0.077203 -0.134717 1.600184 -3.800983 -0.044684 0.000000 0.000000 0.395696 -0.417575 -0.605717
-0.888779 -0.008694 -2.233085 0.228525 0.264396 -0.627045 -0.204285 -0.311153 -0.265029 0.148348 -0.209147 0.951111 -0.928395 0.037036 -1.476779 1.217335 -0.664469 3.139784 0.397716 0.133164 5.118483 -0.085273 0.244443 -0.118932 -1.600793 -2.256450 -1.534163 -0.067828 0.317789 -1.138991 0.024092 -6.711125 -3.600584 0.385575 -1.191260 5.943677 -0.250127 -0.675319 -0.671589 -0.018084 -0.257338 0.852951 -0.088670 -0.186066 0.890480 -0.514037 -0.744755 -0.043321 0.778380 -0.787468 -0.329880 0.236899 -0.105485 0.359472 -0.409515 -0.650050 -0.021458 -0.700266 -0.488176 -4.003410 -1.234064 -0.028500 -0.075957 0.028523 -0.061527 -1.048846 -0.920045 2.012105 -0.287471 -0.299904 0.000000 0.000000 2.610114 2.718691 0.802594 -0.469570 1.008782 -0.168076 0.304332 0.934063 1.405553 -0.106730 0.883171 -3.402918 -0.352000 0.175496 -0.184452 5.448424 2.536927 -5.381195 -0.019126 0.000000 0.000000 2.235093 -0.078582 2.018853
-1.045131 -0.023825 -3.517363 0.390931 0.512846 -0.914578 -0.099615 -0.345180 -0.344477 0.097786 -0.486275 1.616581 -0.795240 0.389618 -1.501850 1.484020 -2.848539 4.519980 0.589400 -0.993709 2.831502 -1.058301 0.149442 -0.096762 -1.691168 -2.968071 -1.011996 -0.013498 0.487581 -1.747854 0.116764 -11.575821 -1.947529 0.725814 -1.390335 12.058973 -0.652053 -0.740654 0.052528 0.032532 -0.138552 1.519895 -0.163724 -0.161279 1.550410 -0.379701 -0.955643 0.713513 1.252948 -0.977326 -0.194900 0.510509 -0.015803 0.689241 -0.525418 -0.814221 0.015294 0.281855 -0.335037 -3.882805 -0.545456 0.905594 0.057117 0.115693 0.019719 -0.984973 -1.128560 1.219100 -1.839330 -0.474644 0.000000 0.000000 3.924140 2.093021 0.121239 -0.893210 1.394892 -0.286672 0.678198 1.330924 1.252859 0.154511 1.540007 -5.742766 -0.481529 0.221107 -0.617476 10.750086 2.982342 -6.457877 0.022067 0.000000 0.000000 3.993890 0.286113 4.756804
-0.679791 -0.158439 -4.750430 0.560327 0.750192 -0.990768 0.160788 -0.275477 -0.248027 0.529112 -0.905205 3.855356 -0.267248 1.251874 1.897177 1.337551 -6.668053 4.912025 0.610375 -2.301200 -0.408458 -2.003391 -0.049117 -0.544976 -2.402110 -4.275394 -0.436685 -0.017135 0.577971 -2.327057 -0.423182 -13.361591 6.961338 0.713668 -0.564176 15.248738 -2.784806 -0.615081 -0.124176 -0.215726 -0.090648 1.471702 -0.540206 -0.064674 1.548491 -0.445872 -1.141873 0.868095 1.189148 -1.293002 -0.878506 0.653248 0.181238 0.762707 -0.676014 -0.876338 0.048193 0.026075 -0.873802 -6.750036 -0.858284 -0.384721 -0.374615 0.208675 -0.044950 -2.757200 -1.536048 -1.687694 -3.566789 -0.526230 0.000000 0.000000 4.255076 1.410865 -0.719554 -1.262060 1.618194 -0.335737 3.026112 0.974971 0.137190 0.734380 1.134025 -7.213099 -0.342674 0.176398 -0.547880 15.204273 -0.415282 -6.347554 0.023102 0.000000 0.000000 2.967605 0.203399 5.778044
-0.316370 -0.260168 -5.462870 0.361933 0.615511 -1.424956 0.075778 -0.382635 -0.404496 -0.147296 -2.493796 0.415437 -0.681594 0.292501 2.187859 1.339242 -7.868936 7.158638 0.935150 -1.630919 1.312687 -1.297820 0.231752 -0.202946 0.035509 -3.808002 3.558606 0.550742 1.195171 -1.721251 -0.943955 -15.829970 14.798904 0.523959 0.995833 20.734371 -3.712198 0.078908 0.464728 -0.198799 0.218269 1.514949 -0.775765 0.034596 1.326995 0.308009 -0.741902 1.374189 1.076760 -1.118867 -1.293740 0.592853 0.264249 0.810517 -0.670634 -0.876194 0.095336 0.208339 -1.358832 -8.728269 -0.835467 -1.119463 -0.622504 0.405993 0.048802 -1.903655 -0.093005 -3.204422 -4.106127 -0.409108 0.000000 0.000000 4.583018 1.843789 -0.756393 -1.547274 1.854965 -0.383513 5.748402 0.772496 -0.796328 1.571047 0.281817 -8.245646 -0.194132 0.021469 -0.663899 17.615049 -3.746215 -3.603207 0.052210 0.000000 0.000000 -1.197813 -1.048374 4.707235
